# xmcd CD database file
#
# Track frame offsets:
#	150
#	17468
#	40209
#	59306
#	79917
#	107297
#	121394
#	147684
#	171016
#	185553
#	209191
#	225840
#
# Disc length: 3370 seconds
#
# Revision: 0
# Processed by: cddbd v1.5.2PL0 Copyright (c) Steve Scherf et al.
# Submitted via: CDex 1.51
#
DISCID=a00d280c
DTITLE=Sassoon and Bentley - Bacon Or Pastarmi
DYEAR=2010
DGENRE=Jazz
TTITLE0=Let the good times roll
TTITLE1=I've got you under my skin
TTITLE2=And I love her
TTITLE3=On Broadway
TTITLE4=Georgia on my mind
TTITLE5=Spider Man
TTITLE6=The jealous kind
TTITLE7=Nearness of you
TTITLE8=Time's gettin' tougher than tough
TTITLE9=Things we've handed donw
TTITLE10=Don't set me free
TTITLE11=Amazing grace - I'll fly away
EXTD=YEAR: 2010
EXTT0=
EXTT1=
EXTT2=
EXTT3=
EXTT4=
EXTT5=
EXTT6=
EXTT7=
EXTT8=
EXTT9=
EXTT10=
EXTT11=
PLAYORDER=
